<svg width="488" height="424" viewBox="0 0 488 424" fill="none" xmlns="http://www.w3.org/2000/svg">
<path d="M178.57 127.15 290.27 0h-26.46l-97.03 110.38L89.34 0H0l117.13 166.93L0 300.25h26.46l102.4-116.59 81.8 116.59h89.34M36.01 19.54H76.66l187.13 262.13h-40.66" fill="#1697F6"/>
<path d="M122.007 211.973L128.396 223.096L219.402 65.2635L256.793 0.473206H243.959H0L122.007 211.973Z" fill="#AEDDFF"/>
<path d="M303.629 0.473206C349.743 152.355 243.959 423.473 243.959 423.473L151.843 263.694L303.629 0.473206Z" fill="#1867C0"/>
<path d="M256.793 0.473206C62.5042 0.473206 128.397 223.096 128.397 223.096L256.793 0.473206Z" fill="#7BC6FF"/>
</svg>
